<?xml version="1.0" standalone="no"?>
<!DOCTYPE svg PUBLIC "-//W3C//DTD SVG 20010904//EN"
 "http://www.w3.org/TR/2001/REC-SVG-20010904/DTD/svg10.dtd">
<svg version="1.0" xmlns="http://www.w3.org/2000/svg"
 width="485.000000pt" height="700.000000pt" viewBox="0 0 485.000000 700.000000"
 preserveAspectRatio="xMidYMid meet">

<g transform="translate(0.000000,700.000000) scale(0.100000,-0.100000)"
fill="rgba(250, 247, 241, 0.4)" stroke="#000" stroke-width="20px">
<path d="M2440 6990 c-191 -22 -391 -75 -566 -150 -545 -233 -938 -703 -1095
-1310 -113 -434 -101 -964 30 -1410 36 -121 65 -212 86 -262 7 -17 -13 -18
-306 -20 l-314 -3 -3 -442 -2 -443 427 -2 428 -3 17 -70 c128 -518 -14 -1157
-333 -1499 -129 -138 -407 -330 -674 -465 -65 -33 -123 -62 -128 -64 -4 -1 35
-99 86 -217 52 -118 132 -308 177 -422 l83 -206 96 48 c379 189 1026 321 1575
320 218 -1 341 -14 611 -64 105 -19 262 -49 350 -65 585 -108 1053 -92 1445
51 71 26 405 179 418 192 9 10 -228 784 -254 828 -2 3 -60 -22 -128 -56 -132
-67 -316 -133 -456 -163 -67 -14 -128 -18 -285 -18 -235 0 -279 8 -701 115
-422 108 -467 115 -744 115 -248 -1 -324 -10 -513 -66 -38 -11 -71 -18 -73
-16 -3 2 25 48 60 101 132 198 232 426 278 640 20 89 22 130 22 356 1 255 -8
353 -49 550 -7 35 -11 68 -9 72 3 4 286 8 630 8 l624 0 -2 443 -3 442 -725 5
-724 5 -24 75 c-66 210 -121 447 -153 660 -26 175 -32 508 -10 630 89 510 357
785 856 876 144 26 362 24 470 -5 220 -59 405 -197 538 -401 109 -168 164
-306 237 -587 6 -26 15 -40 23 -38 6 3 109 23 227 46 118 22 293 58 388 80 96
21 175 39 177 39 10 0 12 67 4 140 -44 411 -242 817 -540 1111 -274 270 -604
435 -1009 504 -111 19 -429 28 -540 15z"/>
</g>
</svg>
